<svg width="48" height="47" viewBox="0 0 48 47" fill="none" xmlns="http://www.w3.org/2000/svg">
<path d="M24 17.656C23.1547 17.656 22.3441 17.3202 21.7464 16.7225C21.1487 16.1248 20.8129 15.3142 20.8129 14.4689V14.283C20.8129 14.0952 20.8875 13.915 21.0204 13.7822C21.1532 13.6494 21.3333 13.5748 21.5212 13.5748C21.709 13.5748 21.8891 13.6494 22.022 13.7822C22.1548 13.915 22.2294 14.0952 22.2294 14.283V14.4689C22.2294 14.9385 22.4159 15.3889 22.748 15.7209C23.08 16.053 23.5304 16.2395 24 16.2395C24.4696 16.2395 24.9199 16.053 25.252 15.7209C25.584 15.3889 25.7706 14.9385 25.7706 14.4689V14.221C25.7706 13.7514 25.584 13.3011 25.252 12.969C24.9199 12.637 24.4696 12.4504 24 12.4504C23.8122 12.4504 23.632 12.3758 23.4992 12.243C23.3664 12.1102 23.2918 11.93 23.2918 11.7422V8.89508C23.2918 8.70724 23.3664 8.5271 23.4992 8.39428C23.632 8.26146 23.8122 8.18684 24 8.18684C24.1878 8.18684 24.368 8.26146 24.5008 8.39428C24.6336 8.5271 24.7082 8.70724 24.7082 8.89508V11.1172C25.4121 11.2776 26.0406 11.6722 26.4909 12.2364C26.9412 12.8006 27.1867 13.5009 27.1871 14.2228V14.4707C27.1866 15.3156 26.8506 16.1258 26.253 16.7231C25.6553 17.3204 24.8449 17.656 24 17.656Z" fill="#CC3C3C"/>
<path d="M24.5684 9.60155H23.4246C22.734 9.60015 22.0721 9.32571 21.5832 8.8381C21.0942 8.35049 20.818 7.68929 20.8147 6.99877V1.70824C20.8147 1.5204 20.8893 1.34026 21.0221 1.20744C21.155 1.07462 21.3351 1 21.5229 1H26.4806C26.6684 1 26.8486 1.07462 26.9814 1.20744C27.1142 1.34026 27.1888 1.5204 27.1888 1.70824V6.99877C27.1856 7.69113 26.9079 8.35393 26.4166 8.84184C25.9254 9.32976 25.2607 9.60296 24.5684 9.60155ZM22.2241 2.41471V6.99877C22.2246 7.31685 22.3512 7.62173 22.5763 7.84648C22.8014 8.07123 23.1065 8.19746 23.4246 8.19746H24.5684C24.8861 8.197 25.1907 8.07055 25.4154 7.84586C25.6401 7.62116 25.7666 7.31654 25.7671 6.99877V2.41471H22.2241Z" fill="#CC3C3C"/>
<path d="M7.69638 22.1781C7.53708 22.1763 7.38301 22.1209 7.25908 22.0208C7.13515 21.9207 7.04857 21.7818 7.01337 21.6264C6.97816 21.471 6.99636 21.3083 7.06503 21.1646C7.13371 21.0208 7.24884 20.9044 7.39183 20.8342L18.9343 15.3082C19.0189 15.2601 19.1124 15.2299 19.2091 15.2196C19.3058 15.2092 19.4037 15.2189 19.4965 15.248C19.5893 15.2771 19.6751 15.325 19.7486 15.3888C19.8221 15.4525 19.8816 15.5307 19.9236 15.6185C19.9655 15.7062 19.9889 15.8017 19.9923 15.8989C19.9957 15.9961 19.9791 16.093 19.9434 16.1835C19.9077 16.274 19.8538 16.3561 19.785 16.4249C19.7162 16.4936 19.6339 16.5474 19.5434 16.583L8.00092 22.109C7.90603 22.155 7.80184 22.1787 7.69638 22.1781Z" fill="#CC3C3C"/>
<path d="M40.3018 22.1781C40.1964 22.1785 40.0923 22.1549 39.9973 22.109L28.4637 16.583C28.3739 16.5468 28.2925 16.4926 28.2245 16.4237C28.1565 16.3548 28.1034 16.2727 28.0683 16.1825C28.0333 16.0922 28.0172 15.9958 28.0209 15.8991C28.0246 15.8023 28.048 15.7074 28.0899 15.6201C28.1317 15.5328 28.191 15.455 28.264 15.3916C28.3371 15.3281 28.4224 15.2802 28.5147 15.251C28.6069 15.2218 28.7042 15.2118 28.8005 15.2216C28.8968 15.2314 28.9901 15.2609 29.0745 15.3082L40.617 20.8342C40.7601 20.9045 40.8753 21.021 40.944 21.165C41.0126 21.3089 41.0307 21.4718 40.9952 21.6272C40.9598 21.7827 40.873 21.9217 40.7487 22.0216C40.6245 22.1216 40.4701 22.1767 40.3107 22.1781H40.3018Z" fill="#CC3C3C"/>
<path d="M5.95234 22.58C5.32515 22.58 4.71204 22.394 4.19055 22.0456C3.66906 21.6971 3.26261 21.2018 3.02259 20.6224C2.78258 20.0429 2.71978 19.4053 2.84214 18.7902C2.9645 18.1751 3.26652 17.61 3.71002 17.1665C4.15351 16.723 4.71854 16.421 5.33368 16.2987C5.94882 16.1763 6.58643 16.2391 7.16588 16.4791C7.74533 16.7191 8.2406 17.1256 8.58904 17.6471C8.93749 18.1686 9.12348 18.7817 9.12348 19.4089C9.12254 20.2496 8.78813 21.0557 8.19363 21.6502C7.59913 22.2447 6.79309 22.5791 5.95234 22.58ZM5.95234 17.6507C5.60452 17.6503 5.26442 17.7531 4.97505 17.9461C4.68569 18.1391 4.46006 18.4136 4.32672 18.7348C4.19337 19.056 4.15829 19.4096 4.22593 19.7508C4.29357 20.092 4.46089 20.4054 4.70671 20.6515C4.95253 20.8975 5.2658 21.0652 5.60691 21.1331C5.94801 21.2011 6.30162 21.1664 6.62299 21.0334C6.94436 20.9004 7.21906 20.675 7.41233 20.3858C7.6056 20.0967 7.70877 19.7567 7.70877 19.4089C7.7069 18.9439 7.52114 18.4986 7.19204 18.1702C6.86295 17.8418 6.41727 17.6569 5.95234 17.656V17.6507Z" fill="#CC3C3C"/>
<path d="M42.0476 22.58C41.4205 22.58 40.8074 22.394 40.2859 22.0456C39.7644 21.6971 39.3579 21.2018 39.1179 20.6224C38.8779 20.0429 38.8151 19.4053 38.9375 18.7902C39.0598 18.1751 39.3618 17.61 39.8053 17.1665C40.2488 16.723 40.8139 16.421 41.429 16.2987C42.0441 16.1763 42.6817 16.2391 43.2612 16.4791C43.8406 16.7191 44.3359 17.1256 44.6844 17.6471C45.0328 18.1686 45.2188 18.7817 45.2188 19.4089C45.2178 20.2496 44.8834 21.0557 44.2889 21.6502C43.6944 22.2447 42.8884 22.5791 42.0476 22.58ZM42.0476 17.6507C41.6999 17.6507 41.36 17.7538 41.0709 17.947C40.7817 18.1402 40.5564 18.4148 40.4233 18.736C40.2902 19.0573 40.2554 19.4108 40.3232 19.7519C40.3911 20.0929 40.5585 20.4062 40.8044 20.6521C41.0503 20.898 41.3636 21.0654 41.7047 21.1333C42.0457 21.2011 42.3992 21.1663 42.7205 21.0332C43.0418 20.9002 43.3164 20.6748 43.5095 20.3857C43.7027 20.0965 43.8059 19.7566 43.8059 19.4089C43.804 18.9436 43.618 18.4981 43.2885 18.1696C42.959 17.8411 42.5129 17.6564 42.0476 17.656V17.6507Z" fill="#CC3C3C"/>
<path d="M46.2918 46.3396H1.70824C1.5204 46.3396 1.34026 46.265 1.20744 46.1321C1.07462 45.9993 1 45.8192 1 45.6313V21.8718C1 21.6839 1.07462 21.5038 1.20744 21.371C1.34026 21.2381 1.5204 21.1635 1.70824 21.1635H46.2918C46.4796 21.1635 46.6597 21.2381 46.7926 21.371C46.9254 21.5038 47 21.6839 47 21.8718V45.6331C46.9995 45.8207 46.9247 46.0003 46.7919 46.1328C46.6592 46.2652 46.4793 46.3396 46.2918 46.3396ZM2.4147 43.9231C2.4147 44.4754 2.86242 44.9231 3.4147 44.9231H44.5853C45.1376 44.9231 45.5853 44.4754 45.5853 43.9231V22.58H2.4147V43.9231Z" fill="#CC3C3C"/>
<path d="M24 41.7626C23.8122 41.7626 23.632 41.688 23.4992 41.5552C23.3664 41.4223 23.2918 41.2422 23.2918 41.0544V26.4541C23.2918 26.2662 23.3664 26.0861 23.4992 25.9533C23.632 25.8204 23.8122 25.7458 24 25.7458C24.1878 25.7458 24.368 25.8204 24.5008 25.9533C24.6336 26.0861 24.7082 26.2662 24.7082 26.4541V41.0561C24.7078 41.2437 24.6329 41.4234 24.5002 41.5558C24.3674 41.6882 24.1875 41.7626 24 41.7626Z" fill="#CC3C3C"/>
<path d="M18.566 41.7626C18.3782 41.7626 18.1981 41.688 18.0652 41.5552C17.9324 41.4223 17.8578 41.2422 17.8578 41.0544V26.4541C17.8578 26.2662 17.9324 26.0861 18.0652 25.9533C18.1981 25.8204 18.3782 25.7458 18.566 25.7458C18.7539 25.7458 18.934 25.8204 19.0668 25.9533C19.1997 26.0861 19.2743 26.2662 19.2743 26.4541V41.0561C19.2738 41.2437 19.199 41.4234 19.0662 41.5558C18.9335 41.6882 18.7536 41.7626 18.566 41.7626Z" fill="#CC3C3C"/>
<path d="M29.4339 41.7626C29.2461 41.7626 29.066 41.688 28.9331 41.5552C28.8003 41.4223 28.7257 41.2422 28.7257 41.0544V26.4541C28.7257 26.2662 28.8003 26.0861 28.9331 25.9533C29.066 25.8204 29.2461 25.7458 29.4339 25.7458C29.6218 25.7458 29.8019 25.8204 29.9347 25.9533C30.0676 26.0861 30.1422 26.2662 30.1422 26.4541V41.0561C30.1417 41.2437 30.0669 41.4234 29.9341 41.5558C29.8013 41.6882 29.6215 41.7626 29.4339 41.7626Z" fill="#CC3C3C"/>
<path d="M13.1303 41.7626C12.9425 41.7626 12.7624 41.688 12.6295 41.5552C12.4967 41.4223 12.4221 41.2422 12.4221 41.0544V26.4541C12.4221 26.2662 12.4967 26.0861 12.6295 25.9533C12.7624 25.8204 12.9425 25.7458 13.1303 25.7458C13.3182 25.7458 13.4983 25.8204 13.6311 25.9533C13.764 26.0861 13.8386 26.2662 13.8386 26.4541V41.0561C13.8381 41.2437 13.7633 41.4234 13.6305 41.5558C13.4977 41.6882 13.3179 41.7626 13.1303 41.7626Z" fill="#CC3C3C"/>
<path d="M34.8679 41.7626C34.6801 41.7626 34.4999 41.688 34.3671 41.5552C34.2343 41.4223 34.1597 41.2422 34.1597 41.0544V26.4541C34.1597 26.2662 34.2343 26.0861 34.3671 25.9533C34.4999 25.8204 34.6801 25.7458 34.8679 25.7458C35.0557 25.7458 35.2359 25.8204 35.3687 25.9533C35.5015 26.0861 35.5761 26.2662 35.5761 26.4541V41.0561C35.5757 41.2437 35.5008 41.4234 35.3681 41.5558C35.2353 41.6882 35.0554 41.7626 34.8679 41.7626Z" fill="#CC3C3C"/>
<path d="M7.69638 41.7626C7.50855 41.7626 7.3284 41.688 7.19558 41.5552C7.06276 41.4223 6.98815 41.2422 6.98815 41.0544V26.4541C6.98815 26.2662 7.06276 26.0861 7.19558 25.9533C7.3284 25.8204 7.50855 25.7458 7.69638 25.7458C7.88422 25.7458 8.06436 25.8204 8.19718 25.9533C8.33 26.0861 8.40462 26.2662 8.40462 26.4541V41.0561C8.40415 41.2437 8.32933 41.4234 8.19656 41.5558C8.06379 41.6882 7.88391 41.7626 7.69638 41.7626Z" fill="#CC3C3C"/>
<path d="M40.3018 41.7626C40.114 41.7626 39.9339 41.688 39.801 41.5552C39.6682 41.4223 39.5936 41.2422 39.5936 41.0544V26.4541C39.5936 26.2662 39.6682 26.0861 39.801 25.9533C39.9339 25.8204 40.114 25.7458 40.3018 25.7458C40.4897 25.7458 40.6698 25.8204 40.8026 25.9533C40.9355 26.0861 41.0101 26.2662 41.0101 26.4541V41.0561C41.0096 41.2437 40.9348 41.4234 40.802 41.5558C40.6692 41.6882 40.4894 41.7626 40.3018 41.7626Z" fill="#CC3C3C"/>
<path d="M24 17.656C23.1547 17.656 22.3441 17.3202 21.7464 16.7225C21.1487 16.1248 20.8129 15.3142 20.8129 14.4689V14.283C20.8129 14.0952 20.8875 13.915 21.0204 13.7822C21.1532 13.6494 21.3333 13.5748 21.5212 13.5748C21.709 13.5748 21.8891 13.6494 22.022 13.7822C22.1548 13.915 22.2294 14.0952 22.2294 14.283V14.4689C22.2294 14.9385 22.4159 15.3889 22.748 15.7209C23.08 16.053 23.5304 16.2395 24 16.2395C24.4696 16.2395 24.9199 16.053 25.252 15.7209C25.584 15.3889 25.7706 14.9385 25.7706 14.4689V14.221C25.7706 13.7514 25.584 13.3011 25.252 12.969C24.9199 12.637 24.4696 12.4504 24 12.4504C23.8122 12.4504 23.632 12.3758 23.4992 12.243C23.3664 12.1102 23.2918 11.93 23.2918 11.7422V8.89508C23.2918 8.70724 23.3664 8.5271 23.4992 8.39428C23.632 8.26146 23.8122 8.18684 24 8.18684C24.1878 8.18684 24.368 8.26146 24.5008 8.39428C24.6336 8.5271 24.7082 8.70724 24.7082 8.89508V11.1172C25.4121 11.2776 26.0406 11.6722 26.4909 12.2364C26.9412 12.8006 27.1867 13.5009 27.1871 14.2228V14.4707C27.1866 15.3156 26.8506 16.1258 26.253 16.7231C25.6553 17.3204 24.8449 17.656 24 17.656Z" stroke="#CC3C3C" stroke-width="0.6"/>
<path d="M24.5684 9.60155H23.4246C22.734 9.60015 22.0721 9.32571 21.5832 8.8381C21.0942 8.35049 20.818 7.68929 20.8147 6.99877V1.70824C20.8147 1.5204 20.8893 1.34026 21.0221 1.20744C21.155 1.07462 21.3351 1 21.5229 1H26.4806C26.6684 1 26.8486 1.07462 26.9814 1.20744C27.1142 1.34026 27.1888 1.5204 27.1888 1.70824V6.99877C27.1856 7.69113 26.9079 8.35393 26.4166 8.84184C25.9254 9.32976 25.2607 9.60296 24.5684 9.60155ZM22.2241 2.41471V6.99877C22.2246 7.31685 22.3512 7.62173 22.5763 7.84648C22.8014 8.07123 23.1065 8.19746 23.4246 8.19746H24.5684C24.8861 8.197 25.1907 8.07055 25.4154 7.84586C25.6401 7.62116 25.7666 7.31654 25.7671 6.99877V2.41471H22.2241Z" stroke="#CC3C3C" stroke-width="0.6"/>
<path d="M7.69638 22.1781C7.53708 22.1763 7.38301 22.1209 7.25908 22.0208C7.13515 21.9207 7.04857 21.7818 7.01337 21.6264C6.97816 21.471 6.99636 21.3083 7.06503 21.1646C7.13371 21.0208 7.24884 20.9044 7.39183 20.8342L18.9343 15.3082C19.0189 15.2601 19.1124 15.2299 19.2091 15.2196C19.3058 15.2092 19.4037 15.2189 19.4965 15.248C19.5893 15.2771 19.6751 15.325 19.7486 15.3888C19.8221 15.4525 19.8816 15.5307 19.9236 15.6185C19.9655 15.7062 19.9889 15.8017 19.9923 15.8989C19.9957 15.9961 19.9791 16.093 19.9434 16.1835C19.9077 16.274 19.8538 16.3561 19.785 16.4249C19.7162 16.4936 19.6339 16.5474 19.5434 16.583L8.00092 22.109C7.90603 22.155 7.80184 22.1787 7.69638 22.1781Z" stroke="#CC3C3C" stroke-width="0.6"/>
<path d="M40.3018 22.1781C40.1964 22.1785 40.0923 22.1549 39.9973 22.109L28.4637 16.583C28.3739 16.5468 28.2925 16.4926 28.2245 16.4237C28.1565 16.3548 28.1034 16.2727 28.0683 16.1825C28.0333 16.0922 28.0172 15.9958 28.0209 15.8991C28.0246 15.8023 28.048 15.7074 28.0899 15.6201C28.1317 15.5328 28.191 15.455 28.264 15.3916C28.3371 15.3281 28.4224 15.2802 28.5147 15.251C28.6069 15.2218 28.7042 15.2118 28.8005 15.2216C28.8968 15.2314 28.9901 15.2609 29.0745 15.3082L40.617 20.8342C40.7601 20.9045 40.8753 21.021 40.944 21.165C41.0126 21.3089 41.0307 21.4718 40.9952 21.6272C40.9598 21.7827 40.873 21.9217 40.7487 22.0216C40.6245 22.1216 40.4701 22.1767 40.3107 22.1781H40.3018Z" stroke="#CC3C3C" stroke-width="0.6"/>
<path d="M5.95234 22.58C5.32515 22.58 4.71204 22.394 4.19055 22.0456C3.66906 21.6971 3.26261 21.2018 3.02259 20.6224C2.78258 20.0429 2.71978 19.4053 2.84214 18.7902C2.9645 18.1751 3.26652 17.61 3.71002 17.1665C4.15351 16.723 4.71854 16.421 5.33368 16.2987C5.94882 16.1763 6.58643 16.2391 7.16588 16.4791C7.74533 16.7191 8.2406 17.1256 8.58904 17.6471C8.93749 18.1686 9.12348 18.7817 9.12348 19.4089C9.12254 20.2496 8.78813 21.0557 8.19363 21.6502C7.59913 22.2447 6.79309 22.5791 5.95234 22.58ZM5.95234 17.6507C5.60452 17.6503 5.26442 17.7531 4.97505 17.9461C4.68569 18.1391 4.46006 18.4136 4.32672 18.7348C4.19337 19.056 4.15829 19.4096 4.22593 19.7508C4.29357 20.092 4.46089 20.4054 4.70671 20.6515C4.95253 20.8975 5.2658 21.0652 5.60691 21.1331C5.94801 21.2011 6.30162 21.1664 6.62299 21.0334C6.94436 20.9004 7.21906 20.675 7.41233 20.3858C7.6056 20.0967 7.70877 19.7567 7.70877 19.4089C7.7069 18.9439 7.52114 18.4986 7.19204 18.1702C6.86295 17.8418 6.41727 17.6569 5.95234 17.656V17.6507Z" stroke="#CC3C3C" stroke-width="0.6"/>
<path d="M42.0476 22.58C41.4205 22.58 40.8074 22.394 40.2859 22.0456C39.7644 21.6971 39.3579 21.2018 39.1179 20.6224C38.8779 20.0429 38.8151 19.4053 38.9375 18.7902C39.0598 18.1751 39.3618 17.61 39.8053 17.1665C40.2488 16.723 40.8139 16.421 41.429 16.2987C42.0441 16.1763 42.6817 16.2391 43.2612 16.4791C43.8406 16.7191 44.3359 17.1256 44.6844 17.6471C45.0328 18.1686 45.2188 18.7817 45.2188 19.4089C45.2178 20.2496 44.8834 21.0557 44.2889 21.6502C43.6944 22.2447 42.8884 22.5791 42.0476 22.58ZM42.0476 17.6507C41.6999 17.6507 41.36 17.7538 41.0709 17.947C40.7817 18.1402 40.5564 18.4148 40.4233 18.736C40.2902 19.0573 40.2554 19.4108 40.3232 19.7519C40.3911 20.0929 40.5585 20.4062 40.8044 20.6521C41.0503 20.898 41.3636 21.0654 41.7047 21.1333C42.0457 21.2011 42.3992 21.1663 42.7205 21.0332C43.0418 20.9002 43.3164 20.6748 43.5095 20.3857C43.7027 20.0965 43.8059 19.7566 43.8059 19.4089C43.804 18.9436 43.618 18.4981 43.2885 18.1696C42.959 17.8411 42.5129 17.6564 42.0476 17.656V17.6507Z" stroke="#CC3C3C" stroke-width="0.6"/>
<path d="M46.2918 46.3396H1.70824C1.5204 46.3396 1.34026 46.265 1.20744 46.1321C1.07462 45.9993 1 45.8192 1 45.6313V21.8718C1 21.6839 1.07462 21.5038 1.20744 21.371C1.34026 21.2381 1.5204 21.1635 1.70824 21.1635H46.2918C46.4796 21.1635 46.6597 21.2381 46.7926 21.371C46.9254 21.5038 47 21.6839 47 21.8718V45.6331C46.9995 45.8207 46.9247 46.0003 46.7919 46.1328C46.6592 46.2652 46.4793 46.3396 46.2918 46.3396ZM2.4147 43.9231C2.4147 44.4754 2.86242 44.9231 3.4147 44.9231H44.5853C45.1376 44.9231 45.5853 44.4754 45.5853 43.9231V22.58H2.4147V43.9231Z" stroke="#CC3C3C" stroke-width="0.6"/>
<path d="M24 41.7626C23.8122 41.7626 23.632 41.688 23.4992 41.5552C23.3664 41.4223 23.2918 41.2422 23.2918 41.0544V26.4541C23.2918 26.2662 23.3664 26.0861 23.4992 25.9533C23.632 25.8204 23.8122 25.7458 24 25.7458C24.1878 25.7458 24.368 25.8204 24.5008 25.9533C24.6336 26.0861 24.7082 26.2662 24.7082 26.4541V41.0561C24.7078 41.2437 24.6329 41.4234 24.5002 41.5558C24.3674 41.6882 24.1875 41.7626 24 41.7626Z" stroke="#CC3C3C" stroke-width="0.6"/>
<path d="M18.566 41.7626C18.3782 41.7626 18.1981 41.688 18.0652 41.5552C17.9324 41.4223 17.8578 41.2422 17.8578 41.0544V26.4541C17.8578 26.2662 17.9324 26.0861 18.0652 25.9533C18.1981 25.8204 18.3782 25.7458 18.566 25.7458C18.7539 25.7458 18.934 25.8204 19.0668 25.9533C19.1997 26.0861 19.2743 26.2662 19.2743 26.4541V41.0561C19.2738 41.2437 19.199 41.4234 19.0662 41.5558C18.9335 41.6882 18.7536 41.7626 18.566 41.7626Z" stroke="#CC3C3C" stroke-width="0.6"/>
<path d="M29.4339 41.7626C29.2461 41.7626 29.066 41.688 28.9331 41.5552C28.8003 41.4223 28.7257 41.2422 28.7257 41.0544V26.4541C28.7257 26.2662 28.8003 26.0861 28.9331 25.9533C29.066 25.8204 29.2461 25.7458 29.4339 25.7458C29.6218 25.7458 29.8019 25.8204 29.9347 25.9533C30.0676 26.0861 30.1422 26.2662 30.1422 26.4541V41.0561C30.1417 41.2437 30.0669 41.4234 29.9341 41.5558C29.8013 41.6882 29.6215 41.7626 29.4339 41.7626Z" stroke="#CC3C3C" stroke-width="0.6"/>
<path d="M13.1303 41.7626C12.9425 41.7626 12.7624 41.688 12.6295 41.5552C12.4967 41.4223 12.4221 41.2422 12.4221 41.0544V26.4541C12.4221 26.2662 12.4967 26.0861 12.6295 25.9533C12.7624 25.8204 12.9425 25.7458 13.1303 25.7458C13.3182 25.7458 13.4983 25.8204 13.6311 25.9533C13.764 26.0861 13.8386 26.2662 13.8386 26.4541V41.0561C13.8381 41.2437 13.7633 41.4234 13.6305 41.5558C13.4977 41.6882 13.3179 41.7626 13.1303 41.7626Z" stroke="#CC3C3C" stroke-width="0.6"/>
<path d="M34.8679 41.7626C34.6801 41.7626 34.4999 41.688 34.3671 41.5552C34.2343 41.4223 34.1597 41.2422 34.1597 41.0544V26.4541C34.1597 26.2662 34.2343 26.0861 34.3671 25.9533C34.4999 25.8204 34.6801 25.7458 34.8679 25.7458C35.0557 25.7458 35.2359 25.8204 35.3687 25.9533C35.5015 26.0861 35.5761 26.2662 35.5761 26.4541V41.0561C35.5757 41.2437 35.5008 41.4234 35.3681 41.5558C35.2353 41.6882 35.0554 41.7626 34.8679 41.7626Z" stroke="#CC3C3C" stroke-width="0.6"/>
<path d="M7.69638 41.7626C7.50855 41.7626 7.3284 41.688 7.19558 41.5552C7.06276 41.4223 6.98815 41.2422 6.98815 41.0544V26.4541C6.98815 26.2662 7.06276 26.0861 7.19558 25.9533C7.3284 25.8204 7.50855 25.7458 7.69638 25.7458C7.88422 25.7458 8.06436 25.8204 8.19718 25.9533C8.33 26.0861 8.40462 26.2662 8.40462 26.4541V41.0561C8.40415 41.2437 8.32933 41.4234 8.19656 41.5558C8.06379 41.6882 7.88391 41.7626 7.69638 41.7626Z" stroke="#CC3C3C" stroke-width="0.6"/>
<path d="M40.3018 41.7626C40.114 41.7626 39.9339 41.688 39.801 41.5552C39.6682 41.4223 39.5936 41.2422 39.5936 41.0544V26.4541C39.5936 26.2662 39.6682 26.0861 39.801 25.9533C39.9339 25.8204 40.114 25.7458 40.3018 25.7458C40.4897 25.7458 40.6698 25.8204 40.8026 25.9533C40.9355 26.0861 41.0101 26.2662 41.0101 26.4541V41.0561C41.0096 41.2437 40.9348 41.4234 40.802 41.5558C40.6692 41.6882 40.4894 41.7626 40.3018 41.7626Z" stroke="#CC3C3C" stroke-width="0.6"/>
</svg>
