<svg width="44" height="37" viewBox="0 0 44 37" fill="none" xmlns="http://www.w3.org/2000/svg">
<path d="M42.0455 18.1818V32.5C42.0455 33.2595 41.7437 33.9879 41.2067 34.5249C40.6697 35.0619 39.9413 35.3636 39.1818 35.3636H4.81818C4.0587 35.3636 3.33033 35.0619 2.7933 34.5249C2.25626 33.9879 1.95455 33.2595 1.95455 32.5V18.1818M27.7273 5.77273V2.90909C27.7273 2.40277 27.5261 1.91718 27.1681 1.55916C26.8101 1.20113 26.3245 1 25.8182 1H17.2273C16.7209 1 16.2354 1.20113 15.8773 1.55916C15.5193 1.91718 15.3182 2.40277 15.3182 2.90909V5.77273M27.7273 21.0455H16.2727M11.5 21.0455H9.59091C6.40273 21.0455 1 19.3177 1 16.2727V7.68182C1 7.17549 1.20113 6.68991 1.55916 6.33188C1.91718 5.97386 2.40277 5.77273 2.90909 5.77273H41.0909C41.5972 5.77273 42.0828 5.97386 42.4408 6.33188C42.7989 6.68991 43 7.17549 43 7.68182V16.2727C43 19.3177 37.5973 21.0455 34.4091 21.0455H32.5M11.5 20.0909H16.2727V24.8636H11.5V20.0909ZM27.7273 20.0909H32.5V24.8636H27.7273V20.0909Z" stroke="#CC3C3C" stroke-width="2" stroke-miterlimit="10"/>
</svg>
