<svg width="47" height="47" viewBox="0 0 47 47" fill="none" xmlns="http://www.w3.org/2000/svg">
<path d="M23.69 18.5296L22.9497 17.7465L16.0943 17.0062L13.8198 19.2806L19.1304 21.555L19.8921 22.3167M34.2574 3.62789C39.0423 1.01017 42.7865 0.216265 44.4172 1.84698C47.3461 4.78656 42.411 14.5923 33.1846 24.913M23.3896 34.5042C13.6375 42.8616 4.62563 47.1744 1.84697 44.385C0.0982447 42.6363 1.13889 38.4522 4.21794 33.1846M43.913 23.7758C43.913 34.441 35.2671 43.0869 24.6019 43.0869C13.9366 43.0869 5.29077 34.441 5.29077 23.7758C5.29077 13.1106 13.9366 4.46471 24.6019 4.46471C35.2671 4.46471 43.913 13.1106 43.913 23.7758ZM33.5493 14.7425C33.3501 14.543 33.1134 14.3847 32.853 14.2768C32.5925 14.1688 32.3132 14.1132 32.0313 14.1132C31.7493 14.1132 31.4701 14.1688 31.2096 14.2768C30.9491 14.3847 30.7125 14.543 30.5132 14.7425L18.0468 27.2089C17.961 27.2947 13.8199 26.8763 13.8199 26.8763L12.3071 28.389L16.0835 30.7171C15.8797 31.3608 15.8046 31.8865 16.2016 32.2834C17.4031 33.485 19.5488 31.7685 20.3213 30.996L24.4409 26.8763L25.2027 27.638L26.8227 33.5923L28.9683 31.4466L29.7193 24.6234L29.6979 21.6301L33.5493 17.7786C33.949 17.3766 34.1733 16.8328 34.1733 16.2659C34.1733 15.6991 33.949 15.1553 33.5493 14.7532V14.7425Z" stroke="#CC3C3C" stroke-width="2" stroke-linejoin="round"/>
</svg>
