<svg width="57" height="44" viewBox="0 0 57 44" fill="none" xmlns="http://www.w3.org/2000/svg">
<path d="M7.33205 18.8821C7.33206 18.7041 7.29672 18.5278 7.22809 18.3635C7.15945 18.1992 7.05888 18.0502 6.93221 17.9251C6.80554 17.8 6.6553 17.7013 6.49018 17.6347C6.32507 17.5681 6.14838 17.535 5.97036 17.5372H2.11391C1.75321 17.5372 1.40729 17.6805 1.15224 17.9356C0.897193 18.1906 0.753906 18.5365 0.753906 18.8972C0.753906 19.2579 0.897193 19.6038 1.15224 19.8589C1.40729 20.1139 1.75321 20.2572 2.11391 20.2572H5.97036C6.15096 20.2595 6.33017 20.2254 6.4973 20.157C6.66444 20.0885 6.81606 19.9871 6.94315 19.8587C7.07023 19.7304 7.17015 19.5778 7.23697 19.41C7.30379 19.2422 7.33612 19.0627 7.33205 18.8821ZM19.6242 6.56637C19.9848 6.56996 20.3321 6.43038 20.5899 6.17826C20.8477 5.92614 20.995 5.58205 20.9994 5.22149V1.36169C20.9994 1.00055 20.8559 0.654196 20.6006 0.39883C20.3452 0.143464 19.9988 0 19.6377 0C19.2765 0 18.9302 0.143464 18.6748 0.39883C18.4195 0.654196 18.276 1.00055 18.276 1.36169V5.22149C18.276 5.39839 18.3109 5.57354 18.3787 5.73693C18.4465 5.90032 18.5458 6.04873 18.6711 6.17365C18.7963 6.29858 18.945 6.39757 19.1085 6.46496C19.2721 6.53235 19.4473 6.56681 19.6242 6.56637ZM8.9997 10.1706C9.25518 10.4257 9.6015 10.5688 9.96248 10.5685C10.3235 10.5681 10.6695 10.4244 10.9246 10.169C11.1796 9.91348 11.3227 9.56716 11.3224 9.20618C11.322 8.8452 11.1783 8.49913 10.9229 8.2441L8.19613 5.51736C7.94066 5.26233 7.59434 5.11924 7.23336 5.11955C6.87238 5.11987 6.52629 5.26357 6.27126 5.51904C6.01623 5.77452 5.87314 6.12084 5.87346 6.48182C5.87377 6.8428 6.01747 7.18887 6.27295 7.4439L8.9997 10.1706ZM8.9997 27.57L6.27295 30.2967C6.01747 30.5518 5.87377 30.8978 5.87346 31.2588C5.87314 31.6198 6.01623 31.9661 6.27126 32.2216C6.52629 32.4771 6.87238 32.6208 7.23336 32.6211C7.59434 32.6214 7.94066 32.4783 8.19613 32.2233L10.9229 29.4965C11.1783 29.2415 11.322 28.8954 11.3224 28.5345C11.3227 28.1735 11.1796 27.8272 10.9246 27.5717C10.6695 27.3162 10.3235 27.1725 9.96248 27.1722C9.6015 27.1719 9.25518 27.315 8.9997 27.57ZM29.2872 10.5674C29.4658 10.5684 29.6428 10.5339 29.8079 10.4657C29.973 10.3976 30.1229 10.2973 30.2488 10.1706L32.9755 7.4439C33.2288 7.18932 33.3705 6.84456 33.3696 6.48547C33.3686 6.12638 33.2251 5.78238 32.9705 5.52913C32.7159 5.27589 32.3711 5.13414 32.0121 5.13509C31.653 5.13604 31.309 5.27959 31.0557 5.53417L28.329 8.25755C28.1302 8.44477 27.993 8.68809 27.9359 8.95513C27.8787 9.22217 27.9042 9.50029 28.009 9.75249C28.1137 10.0047 28.2927 10.219 28.5223 10.367C28.7518 10.515 29.021 10.5896 29.2939 10.5808L29.2872 10.5674ZM16.1746 25.5729C15.1935 25.0757 14.332 24.3714 13.65 23.5085C12.9679 22.6456 12.4815 21.6448 12.2244 20.5753C11.9673 19.5059 11.9456 18.3933 12.1609 17.3147C12.3762 16.2361 12.8233 15.2171 13.4712 14.3283C14.1192 13.4395 14.9526 12.7021 15.9136 12.1672C16.8747 11.6322 17.9405 11.3125 19.0373 11.2302C20.1342 11.1478 21.2358 11.3047 22.266 11.6901C23.2962 12.0755 24.2303 12.6802 25.0038 13.4622C25.7523 12.913 26.5504 12.4347 27.3876 12.0333C26.4104 10.9153 25.2035 10.0214 23.8491 9.41275C22.4948 8.80408 21.0251 8.49497 19.5403 8.50653C18.0555 8.5181 16.5907 8.85007 15.2461 9.47977C13.9014 10.1095 12.7085 11.022 11.7489 12.1551C10.7893 13.2882 10.0857 14.6151 9.68606 16.0451C9.28642 17.4752 9.20023 18.9746 9.43336 20.441C9.66648 21.9074 10.2134 23.3062 11.0368 24.5418C11.8603 25.7774 12.9407 26.8206 14.2044 27.6003C14.7834 26.8526 15.4493 26.1766 16.1881 25.5863L16.1746 25.5729ZM46.8211 23.9153C46.4424 23.9158 46.0641 23.9383 45.688 23.9825C45.2713 20.9969 43.7378 18.2804 41.3969 16.381C39.056 14.4815 36.0818 13.5406 33.0744 13.7479C30.0669 13.9552 27.25 15.2954 25.1919 17.4981C23.1337 19.7007 21.9876 22.602 21.9845 25.6166C21.9845 25.8486 21.9845 26.0772 22.008 26.3092C19.885 26.6487 17.9693 27.7795 16.6462 29.4742C15.3231 31.1689 14.6909 33.3017 14.8766 35.4437C15.0623 37.5857 16.0523 39.5779 17.6473 41.0195C19.2424 42.4612 21.3242 43.2453 23.474 43.2143H46.8345C49.391 43.2143 51.8429 42.1987 53.6506 40.391C55.4583 38.5832 56.4739 36.1314 56.4739 33.5749C56.4739 31.0184 55.4583 28.5665 53.6506 26.7588C51.8429 24.951 49.391 23.9355 46.8345 23.9355L46.8211 23.9153ZM23.474 40.4741C21.9636 40.4424 20.5256 39.8212 19.4671 38.7434C18.4087 37.6656 17.8137 36.2165 17.8093 34.7059C17.8049 33.1952 18.3915 31.7427 19.4436 30.6588C20.4958 29.5748 21.9302 28.9453 23.4403 28.9048L25.182 28.9418L24.8794 27.301C24.6435 26.0458 24.672 24.7552 24.963 23.5117C25.254 22.2681 25.8011 21.0989 26.5695 20.0787C27.3378 19.0585 28.3105 18.2097 29.4253 17.5866C30.5402 16.9635 31.7727 16.5797 33.0442 16.4598C34.3157 16.3398 35.5983 16.4863 36.81 16.89C38.0217 17.2936 39.1359 17.9455 40.0815 18.8041C41.027 19.6626 41.7832 20.7089 42.3016 21.8761C42.82 23.0433 43.0893 24.3058 43.0924 25.5829V27.4591L44.8441 26.9312C45.7962 26.6434 46.7992 26.5644 47.7846 26.6993C48.7701 26.8343 49.7149 27.1801 50.5546 27.7132C51.3943 28.2464 52.1092 28.9543 52.6506 29.7887C53.1919 30.6232 53.547 31.5645 53.6917 32.5486C53.8363 33.5327 53.767 34.5364 53.4887 35.4913C53.2103 36.4462 52.7293 37.3299 52.0785 38.0821C51.4277 38.8343 50.6224 39.4373 49.7174 39.8501C48.8125 40.2629 47.8292 40.4757 46.8345 40.4741H23.474Z" fill="black"/>
</svg>
