<svg width="67" height="70" viewBox="0 0 67 70" fill="none" xmlns="http://www.w3.org/2000/svg">
<path d="M33.6548 37.0671C33.1718 37.0673 32.7021 36.9085 32.3185 36.6151C31.9348 36.3217 31.6585 35.9101 31.5322 35.4439C31.406 34.9777 31.4368 34.4829 31.62 34.036C31.8032 33.5891 32.1285 33.2149 32.5457 32.9715C32.9628 32.728 33.4485 32.6287 33.9277 32.689C34.407 32.7493 34.853 32.9658 35.1968 33.305C35.5406 33.6442 35.7632 34.0872 35.83 34.5655C35.8967 35.0439 35.8041 35.5309 35.5663 35.9513C35.3757 36.2905 35.0981 36.5727 34.7621 36.7688C34.4261 36.965 34.0438 37.0679 33.6548 37.0671Z" fill="#CC3C3C"/>
<path d="M13.103 35.0134C13.5172 35.3787 14.1492 35.339 14.5144 34.9248C14.8797 34.5105 14.84 33.8786 14.4258 33.5134L13.103 35.0134ZM4.40176 17.8242L5.26467 18.3295L5.26579 18.3276L4.40176 17.8242ZM18.3941 17.4227C18.9293 17.5589 19.4736 17.2355 19.6099 16.7003C19.7461 16.165 19.4226 15.6207 18.8874 15.4845L18.3941 17.4227ZM64.0859 47.4975C63.9259 46.9689 63.3677 46.6701 62.8391 46.8301C62.3105 46.9901 62.0117 47.5484 62.1717 48.077L64.0859 47.4975ZM62.9286 51.9224L63.7925 52.426L63.7929 52.4252L62.9286 51.9224ZM34.2482 46.6434C33.7544 46.3961 33.1536 46.5959 32.9063 47.0897C32.659 47.5835 32.8588 48.1843 33.3526 48.4317L34.2482 46.6434ZM40.0886 24.6395C39.6125 24.3596 38.9996 24.5187 38.7197 24.9948C38.4399 25.4709 38.599 26.0838 39.0751 26.3636L40.0886 24.6395ZM57.3053 40.5543C57.6758 40.964 58.3081 40.9957 58.7178 40.6253C59.1274 40.2548 59.1592 39.6225 58.7887 39.2128L57.3053 40.5543ZM28.2192 25.2208L27.7284 24.3495L27.7276 24.35L28.2192 25.2208ZM4.14949 51.5011L5.02072 51.0103L5.02015 51.0093L4.14949 51.5011ZM29.2922 2.10211C28.9098 2.50059 28.9229 3.13362 29.3213 3.51602C29.7198 3.89842 30.3529 3.88539 30.7353 3.4869L29.2922 2.10211ZM33.5663 1V-2.14577e-06L33.5643 2.20537e-06L33.5663 1ZM41.1381 13.4014C41.2852 13.9337 41.836 14.246 42.3683 14.0989C42.9006 13.9518 43.2129 13.401 43.0658 12.8686L41.1381 13.4014ZM22.3447 22.1919C22.2793 22.7403 22.6708 23.2379 23.2192 23.3034C23.7676 23.3688 24.2652 22.9772 24.3306 22.4288L22.3447 22.1919ZM26.6654 11.3898C26.8276 10.8619 26.5312 10.3024 26.0033 10.1402C25.4753 9.97793 24.9159 10.2744 24.7536 10.8023L26.6654 11.3898ZM43.0834 57.2052C43.2317 56.6732 42.9206 56.1217 42.3886 55.9734C41.8566 55.8251 41.3051 56.1362 41.1569 56.6682L43.0834 57.2052ZM33.751 68.744L33.754 69.744H33.7541L33.751 68.744ZM23.586 35.2826C23.5815 34.7304 23.1301 34.2863 22.5779 34.2908C22.0256 34.2954 21.5816 34.7467 21.5861 35.299L23.586 35.2826ZM33.6548 37.0671L33.6569 36.0671H33.6542L33.6548 37.0671ZM32.3185 36.6151L31.711 37.4094L32.3185 36.6151ZM31.62 34.036L30.6947 33.6567L31.62 34.036ZM32.5457 32.9715L33.0497 33.8351L32.5457 32.9715ZM33.9277 32.689L33.8029 33.6812L33.9277 32.689ZM35.1968 33.305L35.8991 32.5931L35.1968 33.305ZM35.5663 35.9513L34.6959 35.459L34.6945 35.4614L35.5663 35.9513ZM34.7621 36.7688L34.258 35.9052L34.7621 36.7688ZM14.4258 33.5134C10.7172 30.2431 7.95303 27.084 6.37009 24.3637C4.74848 21.5769 4.53882 19.569 5.26467 18.3295L3.53885 17.3188C2.22833 19.5566 2.94842 22.4601 4.64145 25.3696C6.37314 28.3455 9.30847 31.6674 13.103 35.0134L14.4258 33.5134ZM5.26579 18.3276C5.86051 17.3069 7.21651 16.5713 9.54618 16.3709C11.8449 16.1733 14.8641 16.5242 18.3941 17.4227L18.8874 15.4845C15.2446 14.5573 11.983 14.154 9.37482 14.3783C6.79757 14.5999 4.62048 15.4624 3.53772 17.3207L5.26579 18.3276ZM62.1717 48.077C62.6135 49.5362 62.5235 50.6301 62.0642 51.4195L63.7929 52.4252C64.6289 50.9884 64.622 49.2683 64.0859 47.4975L62.1717 48.077ZM62.0646 51.4188C61.5836 52.244 60.6113 52.8831 59.0004 53.206C57.3921 53.5283 55.2744 53.505 52.7393 53.1129C47.6773 52.33 41.1757 50.1129 34.2482 46.6434L33.3526 48.4317C40.3989 51.9607 47.1037 54.265 52.4336 55.0894C55.0944 55.5009 57.469 55.5527 59.3934 55.167C61.3151 54.7818 62.916 53.9297 63.7925 52.426L62.0646 51.4188ZM39.0751 26.3636C46.7848 30.8956 53.161 35.9716 57.3053 40.5543L58.7887 39.2128C54.4755 34.4434 47.926 29.2465 40.0886 24.6395L39.0751 26.3636ZM8.83208 41.4305C13.0417 36.5371 20.0758 30.9665 28.7109 26.0916L27.7276 24.35C18.9586 29.3006 11.7199 35.0067 7.3159 40.1262L8.83208 41.4305ZM28.7101 26.092C36.7934 21.5377 44.6797 18.5067 50.875 17.2695C53.9783 16.6498 56.6001 16.4919 58.5874 16.7822C60.5914 17.0749 61.7646 17.7896 62.2966 18.7339L64.0391 17.7521C63.0692 16.0307 61.1601 15.1368 58.8764 14.8032C56.5759 14.4671 53.7044 14.665 50.4833 15.3082C44.03 16.597 35.9439 19.7207 27.7284 24.3495L28.7101 26.092ZM62.2966 18.7339C62.8289 19.6786 62.8329 21.0524 62.0462 22.9179C61.2662 24.7678 59.7744 26.9283 57.6379 29.2615C53.3725 33.9195 46.6956 39.0952 38.6073 43.6521L39.589 45.3946C47.8097 40.7631 54.6696 35.4644 59.1129 30.6122C61.3306 28.1903 62.986 25.8367 63.8891 23.695C64.7857 21.5687 65.0088 19.4732 64.0391 17.7521L62.2966 18.7339ZM38.6073 43.6521C30.5188 48.2091 22.6325 51.24 16.4385 52.4766C13.3359 53.096 10.7151 53.2534 8.72876 52.9627C6.72569 52.6696 5.5529 51.9548 5.02072 51.0103L3.27825 51.992C4.248 53.7132 6.1561 54.6076 8.43919 54.9417C10.739 55.2782 13.6096 55.0808 16.8301 54.4379C23.2822 53.1498 31.3683 50.026 39.589 45.3946L38.6073 43.6521ZM5.02015 51.0093C4.67403 50.3966 4.55232 49.6154 4.72176 48.6211L2.75018 48.2851C2.52432 49.6106 2.65227 50.884 3.27883 51.993L5.02015 51.0093ZM30.7353 3.4869C31.7346 2.44558 32.6856 2.00184 33.5684 2L33.5643 2.20537e-06C31.9556 0.00336045 30.5192 0.823578 29.2922 2.10211L30.7353 3.4869ZM33.5663 2C34.7794 2 36.1386 2.84275 37.5217 4.85041C38.8846 6.8288 40.1276 9.745 41.1381 13.4014L43.0658 12.8686C42.0243 9.09993 40.7069 5.94862 39.1687 3.71579C37.6506 1.51221 35.768 0 33.5663 0V2ZM24.3306 22.4288C24.777 18.6867 25.5584 14.9922 26.6654 11.3898L24.7536 10.8023C23.6115 14.5191 22.8053 18.331 22.3447 22.1919L24.3306 22.4288ZM41.1569 56.6682C40.166 60.2231 38.9508 63.0544 37.6182 64.9747C36.2671 66.9217 34.9386 67.7403 33.7479 67.744L33.7541 69.744C35.9209 69.7373 37.7705 68.2633 39.2614 66.1149C40.7708 63.9397 42.0613 60.8725 43.0834 57.2052L41.1569 56.6682ZM33.748 67.744C32.6814 67.7472 31.4957 67.0878 30.2628 65.5029C29.0407 63.932 27.8926 61.5957 26.9036 58.6214C24.9291 52.6838 23.6608 44.4245 23.586 35.2826L21.5861 35.299C21.6621 44.591 22.9491 53.0675 25.0057 59.2525C26.0323 62.3395 27.2687 64.9113 28.6841 66.7309C30.0887 68.5364 31.7934 69.7499 33.754 69.744L33.748 67.744ZM30.8187 6.86203C30.8187 7.5387 30.618 8.20015 30.2421 8.76277L31.905 9.87391C32.5007 8.98239 32.8187 7.93425 32.8187 6.86203H30.8187ZM30.2421 8.76277C29.8661 9.32539 29.3318 9.7639 28.7067 10.0228L29.472 11.8706C30.4626 11.4603 31.3093 10.7654 31.905 9.87391L30.2421 8.76277ZM28.7067 10.0228C28.0815 10.2818 27.3936 10.3495 26.73 10.2175L26.3398 12.1791C27.3914 12.3883 28.4814 12.2809 29.472 11.8706L28.7067 10.0228ZM26.73 10.2175C26.0663 10.0855 25.4567 9.75968 24.9782 9.28121L23.564 10.6954C24.3222 11.4536 25.2882 11.9699 26.3398 12.1791L26.73 10.2175ZM24.9782 9.28121C24.4998 8.80275 24.1739 8.19314 24.0419 7.52948L22.0803 7.91966C22.2895 8.97128 22.8058 9.93725 23.564 10.6954L24.9782 9.28121ZM24.0419 7.52948C23.9099 6.86583 23.9777 6.17793 24.2366 5.55278L22.3888 4.78741C21.9785 5.77801 21.8712 6.86804 22.0803 7.91966L24.0419 7.52948ZM24.2366 5.55278C24.4955 4.92763 24.9341 4.3933 25.4967 4.01737L24.3855 2.35443C23.494 2.95013 22.7992 3.79681 22.3888 4.78741L24.2366 5.55278ZM25.4967 4.01737C26.0593 3.64144 26.7208 3.44079 27.3974 3.44079V1.44079C26.3252 1.44079 25.2771 1.75874 24.3855 2.35443L25.4967 4.01737ZM27.3974 3.44079C28.3048 3.44079 29.175 3.80124 29.8166 4.44285L31.2308 3.02864C30.2141 2.01196 28.8352 1.44079 27.3974 1.44079V3.44079ZM29.8166 4.44285C30.4582 5.08446 30.8187 5.95466 30.8187 6.86203H32.8187C32.8187 5.42423 32.2475 4.04532 31.2308 3.02864L29.8166 4.44285ZM8.84248 44.4765C8.84248 45.1531 8.64183 45.8146 8.2659 46.3772L9.92884 47.4883C10.5245 46.5968 10.8425 45.5487 10.8425 44.4765H8.84248ZM8.2659 46.3772C7.88997 46.9398 7.35565 47.3783 6.73049 47.6373L7.49586 49.485C8.48646 49.0747 9.33315 48.3799 9.92884 47.4883L8.2659 46.3772ZM6.73049 47.6373C6.10534 47.8962 5.41744 47.964 4.75379 47.832L4.36361 49.7935C5.41523 50.0027 6.50526 49.8954 7.49586 49.485L6.73049 47.6373ZM4.75379 47.832C4.09014 47.7 3.48054 47.3741 3.00206 46.8956L1.58785 48.3099C2.34602 49.068 3.31199 49.5844 4.36361 49.7935L4.75379 47.832ZM3.00206 46.8956C2.52359 46.4172 2.19775 45.8076 2.06574 45.1439L0.104169 45.5341C0.313349 46.5857 0.829675 47.5517 1.58785 48.3099L3.00206 46.8956ZM2.06574 45.1439C1.93373 44.4803 2.00148 43.7924 2.26043 43.1672L0.412671 42.4018C0.00235116 43.3924 -0.105011 44.4825 0.104169 45.5341L2.06574 45.1439ZM2.26043 43.1672C2.51938 42.5421 2.95788 42.0077 3.5205 41.6318L2.40936 39.9689C1.51784 40.5646 0.822991 41.4112 0.412671 42.4018L2.26043 43.1672ZM3.5205 41.6318C4.08312 41.2559 4.74459 41.0552 5.42124 41.0552V39.0552C4.34902 39.0552 3.30088 39.3732 2.40936 39.9689L3.5205 41.6318ZM5.42124 41.0552C6.32861 41.0552 7.19882 41.4157 7.84043 42.0573L9.25464 40.6431C8.23796 39.6264 6.85905 39.0552 5.42124 39.0552V41.0552ZM7.84043 42.0573C8.48203 42.6989 8.84248 43.5691 8.84248 44.4765H10.8425C10.8425 43.0387 10.2713 41.6597 9.25464 40.6431L7.84043 42.0573ZM64.3967 43.7248C64.3967 44.4014 64.196 45.0629 63.8201 45.6255L65.483 46.7366C66.0787 45.8451 66.3967 44.797 66.3967 43.7248H64.3967ZM63.8201 45.6255C63.4442 46.1881 62.9098 46.6266 62.2847 46.8856L63.0501 48.7333C64.0407 48.323 64.8873 47.6282 65.483 46.7366L63.8201 45.6255ZM62.2847 46.8856C61.6595 47.1445 60.9716 47.2123 60.308 47.0803L59.9178 49.0418C60.9694 49.251 62.0595 49.1437 63.0501 48.7333L62.2847 46.8856ZM60.308 47.0803C59.6443 46.9483 59.0347 46.6224 58.5563 46.144L57.142 47.5582C57.9002 48.3163 58.8662 48.8327 59.9178 49.0418L60.308 47.0803ZM58.5563 46.144C58.0778 45.6655 57.7519 45.0559 57.6199 44.3922L55.6584 44.7824C55.8675 45.834 56.3839 46.8 57.142 47.5582L58.5563 46.144ZM57.6199 44.3922C57.4879 43.7286 57.5557 43.0407 57.8146 42.4155L55.9669 41.6502C55.5565 42.6408 55.4492 43.7308 55.6584 44.7824L57.6199 44.3922ZM57.8146 42.4155C58.0736 41.7904 58.5121 41.256 59.0747 40.8801L57.9636 39.2172C57.072 39.8129 56.3772 40.6595 55.9669 41.6502L57.8146 42.4155ZM59.0747 40.8801C59.6373 40.5042 60.2988 40.3035 60.9754 40.3035V38.3035C59.9032 38.3035 58.8551 38.6215 57.9636 39.2172L59.0747 40.8801ZM60.9754 40.3035C61.8828 40.3035 62.753 40.664 63.3946 41.3056L64.8088 39.8914C63.7922 38.8747 62.4132 38.3035 60.9754 38.3035V40.3035ZM63.3946 41.3056C64.0362 41.9472 64.3967 42.8174 64.3967 43.7248H66.3967C66.3967 42.287 65.8255 40.9081 64.8088 39.8914L63.3946 41.3056ZM33.6542 36.0671C33.391 36.0672 33.135 35.9807 32.9259 35.8208L31.711 37.4094C32.2692 37.8364 32.9526 38.0675 33.6554 38.0671L33.6542 36.0671ZM32.9259 35.8208C32.7169 35.6609 32.5663 35.4365 32.4975 35.1825L30.567 35.7053C30.7507 36.3836 31.1528 36.9825 31.711 37.4094L32.9259 35.8208ZM32.4975 35.1825C32.4287 34.9284 32.4455 34.6588 32.5453 34.4152L30.6947 33.6567C30.4282 34.307 30.3833 35.0269 30.567 35.7053L32.4975 35.1825ZM32.5453 34.4152C32.6451 34.1717 32.8224 33.9678 33.0497 33.8351L32.0416 32.1078C31.4346 32.4621 30.9613 33.0064 30.6947 33.6567L32.5453 34.4152ZM33.0497 33.8351C33.2771 33.7024 33.5418 33.6483 33.8029 33.6812L34.0526 31.6968C33.3553 31.6091 32.6485 31.7535 32.0416 32.1078L33.0497 33.8351ZM33.8029 33.6812C34.0641 33.714 34.3071 33.832 34.4945 34.0169L35.8991 32.5931C35.3988 32.0995 34.7498 31.7845 34.0526 31.6968L33.8029 33.6812ZM34.4945 34.0169C34.6819 34.2017 34.8032 34.4431 34.8396 34.7038L36.8203 34.4273C36.7232 33.7312 36.3994 33.0866 35.8991 32.5931L34.4945 34.0169ZM34.8396 34.7038C34.876 34.9645 34.8255 35.2299 34.6959 35.459L36.4367 36.4436C36.7827 35.8319 36.9175 35.1233 36.8203 34.4273L34.8396 34.7038ZM34.6945 35.4614C34.5911 35.6456 34.4404 35.7987 34.258 35.9052L35.2662 37.6325C35.7558 37.3467 36.1604 36.9355 36.4381 36.4412L34.6945 35.4614ZM34.258 35.9052C34.0756 36.0116 33.8681 36.0675 33.6569 36.0671L33.6526 38.0671C34.2195 38.0683 34.7765 37.9183 35.2662 37.6325L34.258 35.9052Z" fill="#CC3C3C"/>
</svg>
