<svg width="65" height="65" viewBox="0 0 65 65" fill="none" xmlns="http://www.w3.org/2000/svg">
<path d="M47.6667 26.6667H61.6667V64H3.33333V26.6667H17.3333M1 64H64M32.5 5.66667V10.3333M34.8333 8H30.1667M39.5 8H47.6667V64H17.3333V8H25.5M25.5 1H39.5V15H25.5V1ZM26.6667 47.6667H38.3333V64H26.6667V47.6667ZM24.3333 36H29V40.6667H24.3333V36ZM36 36H40.6667V40.6667H36V36ZM24.3333 24.3333H29V29H24.3333V24.3333ZM36 24.3333H40.6667V29H36V24.3333Z" stroke="#CC3C3C" stroke-width="2" stroke-linecap="round" stroke-linejoin="round"/>
</svg>
