<svg width="648" height="633" viewBox="0 0 648 633" fill="none" xmlns="http://www.w3.org/2000/svg">
<path d="M384.635 330.045L522.654 468.414V508.894C522.549 511.711 521.636 514.438 520.026 516.751C518.416 519.064 516.175 520.866 513.571 521.944C510.966 523.021 508.107 523.328 505.333 522.828C502.559 522.329 499.986 521.043 497.922 519.125L347.241 368.17C344.285 365.195 340.77 362.834 336.898 361.223C333.026 359.611 328.874 358.782 324.68 358.782C320.485 358.782 316.333 359.611 312.461 361.223C308.589 362.834 305.074 365.195 302.118 368.17L151.438 519.125C149.373 521.043 146.801 522.329 144.026 522.828C141.252 523.328 138.393 523.021 135.789 521.944C133.184 520.866 130.943 519.064 129.333 516.751C127.723 514.438 126.811 511.711 126.705 508.894V468.414L264.43 330.413C270.43 324.41 273.801 316.269 273.801 307.781C273.801 299.293 270.43 291.152 264.43 285.149L126.631 147.075V106.594C126.723 103.772 127.626 101.035 129.231 98.7115C130.836 96.3876 133.076 94.5742 135.683 93.488C138.29 92.4018 141.155 92.0886 143.935 92.5855C146.716 93.0823 149.295 94.3683 151.364 96.2902L301.824 247.024C304.779 249.999 308.294 252.361 312.166 253.972C316.038 255.583 320.191 256.413 324.385 256.413C328.579 256.413 332.732 255.583 336.604 253.972C340.476 252.361 343.991 249.999 346.947 247.024L497.774 95.9223C499.844 94.0004 502.423 92.714 505.203 92.2171C507.983 91.7203 510.848 92.0338 513.455 93.12C516.063 94.2063 518.302 96.0193 519.907 98.3431C521.512 100.667 522.415 103.403 522.507 106.226V146.706L384.635 284.781C378.652 290.794 375.294 298.931 375.294 307.413C375.294 315.895 378.652 324.032 384.635 330.045ZM416.288 156.348V126.098H362.994V209.708L416.288 156.348ZM297.701 221.779L311.982 235.984C313.604 237.624 315.536 238.926 317.665 239.815C319.794 240.703 322.078 241.161 324.385 241.161C326.692 241.161 328.976 240.703 331.105 239.815C333.234 238.926 335.166 237.624 336.788 235.984L350.995 221.779V126.098H297.701V221.779ZM285.703 209.708V126.098H232.409V156.348L285.703 209.708ZM233.44 334.461L112.645 455.46H72.3067C69.4837 455.368 66.7468 454.466 64.4226 452.861C62.0984 451.256 60.285 449.017 59.1987 446.41C58.1123 443.803 57.7989 440.939 58.2959 438.159C58.7928 435.379 60.079 432.8 62.0012 430.731L88.7218 404.014L5.46854 320.624C1.9669 317.119 0 312.367 0 307.413C0 302.459 1.9669 297.707 5.46854 294.202L113.16 186.303C114.89 184.572 116.944 183.199 119.205 182.262C121.466 181.325 123.889 180.842 126.337 180.842C128.784 180.842 131.208 181.325 133.468 182.262C135.729 183.199 137.783 184.572 139.513 186.303L248.824 295.821C251.894 298.898 253.618 303.067 253.618 307.413C253.618 311.759 251.894 315.928 248.824 319.005L233.44 334.461ZM67.6692 307.45L126.557 366.33L185.446 307.45L126.557 248.57L67.6692 307.45ZM445.29 493.217C448.792 496.723 450.759 501.474 450.759 506.429C450.759 511.383 448.792 516.135 445.29 519.64L337.598 627.538C335.869 629.27 333.815 630.643 331.554 631.58C329.293 632.518 326.869 633 324.422 633C321.975 633 319.551 632.518 317.29 631.58C315.029 630.643 312.975 629.27 311.246 627.538L203.48 519.935C200.014 516.41 198.072 511.666 198.072 506.723C198.072 501.781 200.014 497.036 203.48 493.512L311.246 385.614C312.975 383.882 315.029 382.509 317.29 381.572C319.551 380.634 321.975 380.152 324.422 380.152C326.869 380.152 329.293 380.634 331.554 381.572C333.815 382.509 335.869 383.882 337.598 385.614L445.29 493.217ZM382.795 506.392L323.907 447.511L265.018 506.392L323.907 565.272L382.795 506.392ZM642.05 320.624L559.46 404.014L586.107 430.731C588.025 432.795 589.311 435.367 589.811 438.141C590.31 440.915 590.003 443.774 588.926 446.378C587.848 448.982 586.046 451.222 583.732 452.832C581.419 454.443 578.692 455.355 575.875 455.46H535.463L414.742 334.461L399.357 319.005C396.287 315.928 394.563 311.759 394.563 307.413C394.563 303.067 396.287 298.898 399.357 295.821L508.669 186.303C510.398 184.572 512.452 183.199 514.713 182.262C516.974 181.325 519.397 180.842 521.845 180.842C524.292 180.842 526.716 181.325 528.977 182.262C531.237 183.199 533.291 184.572 535.021 186.303L642.713 294.202C646.166 297.756 648.067 302.535 647.998 307.49C647.929 312.444 645.896 317.168 642.345 320.624H642.05ZM579.85 307.45L520.961 248.57L462.073 307.45L520.961 366.33L579.85 307.45ZM228.949 114.322H419.6L480.917 52.9394C481.718 52.2443 482.241 51.2847 482.393 50.2356C482.544 49.1864 482.313 48.1177 481.741 47.2249C481.17 46.332 480.296 45.6744 479.28 45.3723C478.264 45.0702 477.173 45.1437 476.206 45.5794L435.794 60.8147H212.755L172.343 45.5794C171.377 45.1437 170.286 45.0702 169.269 45.3723C168.253 45.6744 167.38 46.332 166.808 47.2249C166.237 48.1177 166.005 49.1864 166.157 50.2356C166.308 51.2847 166.832 52.2443 167.632 52.9394L228.949 114.322ZM333.697 3.9217C332.477 2.67995 331.022 1.69348 329.417 1.02018C327.812 0.346882 326.089 0 324.348 0C322.608 0 320.884 0.346882 319.279 1.02018C317.674 1.69348 316.219 2.67995 315 3.9217L270.834 48.082H377.642L333.697 3.9217Z" fill="#EF3924"/>
<path d="M154.015 307.229L126.117 335.124L98.2924 307.229C101.93 303.533 106.266 300.598 111.05 298.594C115.833 296.59 120.968 295.558 126.154 295.558C131.34 295.558 136.474 296.59 141.258 298.594C146.041 300.598 150.378 303.533 154.015 307.229ZM296.672 505.951L324.57 533.919L352.395 505.951C348.733 502.283 344.379 499.378 339.586 497.405C334.793 495.432 329.656 494.43 324.472 494.458C319.289 494.485 314.162 495.541 309.39 497.565C304.618 499.588 300.295 502.539 296.672 506.245V505.951ZM549.155 307.229C545.518 303.586 541.198 300.697 536.443 298.725C531.687 296.753 526.589 295.738 521.441 295.738C516.293 295.738 511.195 296.753 506.44 298.725C501.684 300.697 497.364 303.586 493.727 307.229L521.625 335.124L549.45 307.229H549.155Z" fill="white"/>
</svg>
