<svg width="55" height="57" viewBox="0 0 55 57" fill="none" xmlns="http://www.w3.org/2000/svg">
<path fill-rule="evenodd" clip-rule="evenodd" d="M49.9916 45C45.1364 51.0941 37.6513 55 29.2539 55C14.6184 55 2.75391 43.1355 2.75391 28.5C2.75391 13.8645 14.6184 2 29.2539 2C38.9591 2 47.4457 7.2172 52.0622 15H54.36C49.5478 6.06944 40.1096 0 29.2539 0C13.5138 0 0.753906 12.7599 0.753906 28.5C0.753906 44.2401 13.5138 57 29.2539 57C38.8448 57 47.3292 52.2625 52.4946 45H49.9916Z" fill="#CC3C3C"/>
<path d="M21.7539 29.5L36.7539 29.5M36.7539 29.5L31.2994 24M36.7539 29.5L31.2994 35" stroke="white" stroke-width="2" stroke-linecap="round" stroke-linejoin="round"/>
</svg>
