<svg width="54" height="57" viewBox="0 0 54 57" fill="none" xmlns="http://www.w3.org/2000/svg">
<path fill-rule="evenodd" clip-rule="evenodd" d="M49.2377 45C44.3825 51.0941 36.8974 55 28.5 55C13.8645 55 2 43.1355 2 28.5C2 13.8645 13.8645 2 28.5 2C38.2052 2 46.6918 7.2172 51.3083 15H53.6061C48.7938 6.06944 39.3557 0 28.5 0C12.7599 0 0 12.7599 0 28.5C0 44.2401 12.7599 57 28.5 57C38.0909 57 46.5753 52.2625 51.7407 45H49.2377Z" fill="#CC3C3C"/>
<path d="M21 29.5L36 29.5M36 29.5L30.5455 24M36 29.5L30.5455 35" stroke="black" stroke-width="2" stroke-linecap="round" stroke-linejoin="round"/>
</svg>
